<svg xmlns="http://www.w3.org/2000/svg" version="1.1" x="0" y="0" width="50" height="50" viewBox="0 0 50 50" enable-background="new 0 0 50 50" xml:space="preserve"><path fill="#000000" d="M44.3 11.3c0.1 0.3 0.2 0.4 0.2 0.6 0 0.1-0.1 0.3-0.2 0.6l-23.3 30C20.6 42.8 20.3 43 20.1 43c-0.3 0-0.6-0.2-0.9-0.5L6 29.8 5.7 29.5C5.6 29.3 5.5 29.1 5.5 28.9c0-0.1 0.1-0.2 0.2-0.5l0.2-0.2C7.6 26.4 9 25 10 24c0.4-0.4 0.6-0.6 0.8-0.6 0.2 0 0.6 0.2 0.9 0.6l7.5 7.3 18.8-24.1C38.1 7.1 38.3 7 38.5 7c0.2 0 0.4 0.1 0.7 0.2L44.3 11.3z"/></svg>
