<svg xmlns="http://www.w3.org/2000/svg" version="1.2" baseProfile="tiny" x="0" y="0" width="180" height="175" viewBox="-2.18 -2.85 180 175" overflow="visible" xml:space="preserve"><path fill="#24B8D7" d="M26.59 163.88c-12.26 0-13.61-12.76-13.61-12.76L0.11 28.62c-1.49-14.15 12.66-15.63 12.66-15.63L135.26 0.11C135.97 0.04 136.65 0 137.29 0c12.27 0 13.61 12.77 13.61 12.77l0.86 8.15H40.14c0 0-14.22 0-14.22 14.23v123.17c0 0 0 2.59 1.11 5.56C26.88 163.88 26.73 163.88 26.59 163.88"/><path fill="#A2D8EA" d="M163.31 172.54H40.14c-8.15 0-11.63-4.67-13.12-8.66 0.52-0.01 1.05-0.04 1.6-0.1l122.49-12.87c0 0 14.15-1.49 12.66-15.63L151.76 20.92h11.55c14.23 0 14.23 14.23 14.23 14.23v123.17C177.53 172.54 163.31 172.54 163.31 172.54"/><path fill="#00ACC8" d="M27.02 163.88c-1.11-2.97-1.11-5.56-1.11-5.56V35.15c0-14.23 14.23-14.23 14.23-14.23H151.76l12.02 114.35c1.49 14.15-12.66 15.64-12.66 15.64L28.62 163.77C28.07 163.83 27.54 163.86 27.02 163.88"/><path fill="#FFFFFF" d="M117.79 131.15c-0.99 0.23-2.33 0.48-4.02 0.74 -1.69 0.27-3.55 0.5-5.56 0.71 -2.02 0.21-4.09 0.39-6.22 0.54 -2.13 0.15-4.15 0.23-6.04 0.23 -5.59 0-10.66-0.6-15.2-1.8 -4.54-1.2-8.44-3.3-11.69-6.3 -3.25-3-5.76-7.04-7.53-12.12 -1.77-5.07-2.65-11.49-2.65-19.25V82.33c0-7.76 0.88-14.17 2.65-19.25s4.28-9.1 7.53-12.09c3.25-2.98 7.15-5.07 11.69-6.24 4.54-1.18 9.61-1.77 15.2-1.77 1.9 0 3.91 0.08 6.05 0.23 2.13 0.15 4.2 0.34 6.22 0.57 2.02 0.23 3.87 0.48 5.56 0.77 1.69 0.28 3.03 0.54 4.02 0.77V58.26c-1.44-0.11-3.02-0.24-4.73-0.37 -1.71-0.13-3.48-0.25-5.3-0.34 -1.82-0.09-3.65-0.18-5.48-0.26 -1.82-0.08-3.59-0.11-5.3-0.11 -3.65 0-6.83 0.37-9.55 1.11 -2.72 0.74-4.98 2.06-6.79 3.96 -1.81 1.9-3.16 4.48-4.05 7.73 -0.89 3.25-1.34 7.37-1.34 12.35v11.58c0 4.98 0.45 9.1 1.34 12.35 0.89 3.25 2.24 5.83 4.05 7.73s4.07 3.23 6.79 3.99c2.72 0.76 5.9 1.14 9.55 1.14 1.71 0 3.48-0.03 5.3-0.08 1.83-0.06 3.65-0.14 5.48-0.26s3.59-0.24 5.3-0.37c1.71-0.13 3.29-0.26 4.73-0.37V131.15z"/></svg>
