<svg xmlns:svg="http://www.w3.org/2000/svg" xmlns="http://www.w3.org/2000/svg" version="1" width="306" height="58"><style>.s0{fill:#f47320;}</style><path d="m73.6 9c-2.9 0-4.8-1.8-4.8-4.4 0-2.2 1.5-4.1 4.8-4.1 3.1 0 4.6 1.9 4.6 4.1 0 2.7-1.7 4.4-4.6 4.4M46.2 46.6c-6.2 0-11.4-3.5-11.4-10.1 0-8 8.9-9.7 12.8-10.3 6.4-0.8 7-1.2 7-2.9 0-3.6-0.6-6.5-5.1-6.5 0 0 0 0 0 0-3 0-5.4 0.9-7.7 2.3-0.4 0.3-0.9 0.5-1.3 0.8-0.4 0.3-1.1 1.1-2 1.1-0.5 0-1.3-0.4-1.3-1.5l0-3.3c0-0.7 0.3-1.3 1.1-1.8 2.9-1.5 7.5-2.3 11.4-2.3 10.4 0 13.5 4.1 13.5 10l0 22.8c0 0.5-0.4 0.9-0.9 0.9l-6.7 0c-0.4 0-0.7-0.3-0.7-0.9l-0.2-1.9c-2.3 2-5.1 3.5-8.5 3.5M54.5 29c-8.1 0-11.2 3.7-11.2 7.6 0 2.8 1.5 5.6 5.4 5.6 3.4 0 5.9-2.6 5.9-3.5l0-9.7M161.4 46.8c-5.3 0-9.2-1.8-11.7-3.8-1.1-0.8-1.3-2.2-1.3-3.4l0-37.8c0-0.5 0.4-0.9 0.7-0.9l7.1 0c0.5 0 0.9 0.4 0.9 0.9l0 14.6c1.4-1.2 4.6-3.7 9.6-3.7 7.6 0 12.3 6.6 12.3 15.4 0 11.3-7.9 18.8-17.5 18.8m-4.4-6.6c0 0.6 0.2 1.3 1 1.9 0.8 0.5 1.9 0.8 4 0.8 4.7 0 8-4.8 8-13 0-3.1-0.7-11.7-7.3-11.7-2.6 0-4.5 1.5-5.7 2.3l0 19.8c0 0.2 0 0.3 0 0.3l0-0.3M247.1 58c-0.9 0-1.8 0-3.1-0.3-0.9-0.2-1.5-0.8-1.5-1.6l0-4.2c0-0.5 0.4-1 0.9-1 0.8 0 1.4 0.2 2.3 0.4 1.4 0.4 2.7 0.6 3.9 0.6 4 0 7.1-2 7.2-6.2l-13.4-30.9c-0.3-0.7-0.4-1-0.4-1.2 0-0.4 0.2-0.7 0.7-0.7l8 0c0.7 0 0.9 0.2 1.2 0.8l7.9 21 7.7-21c0.1-0.5 0.5-0.8 1-0.8l3.4 0c0.4 0 0.7 0.3 0.7 0.7 0 0.3-0.2 0.5-0.3 0.9l-13.5 34.7c-1.9 4.8-7.1 8.7-12.8 8.7M13.3 46.9c-4.1 0-8.3-0.9-12.1-2.7-0.7-0.4-0.9-0.8-0.9-1.4l0-3.8c0-0.7 0.2-1.3 1.5-1.3 0.7 0 1.1 0.4 2 1 3.8 2.6 7.4 3.7 10.4 3.7 5.1 0 8.6-3.1 8.6-6.9C22.9 25.4 0 28.5 0 13.7 0 6.9 5.3 0.9 15 0.9c4.8 0 9.3 0.9 11.7 1.9 0.7 0.3 0.8 0.6 0.8 1.3l0 4.3c0 0.6-0.2 1.2-1 1.2-0.6 0-1.2-0.3-2-0.9-2.9-2.1-5.7-3.4-9.4-3.4-4.1 0-7.3 2.3-7.3 5.6 0 8.4 23.2 7.5 23.2 21.1 0 10.3-8.5 15-17.8 15M77.2 45.9l-7 0c-0.3 0-0.7-0.3-0.7-0.9l0-31.1c0-0.5 0.4-0.9 0.7-0.9l7 0c0.5 0 0.9 0.4 0.9 0.9l0 31.1c0 0.5-0.4 0.9-0.9 0.9M197.9 46.6c-7.2 0-14.6-3.1-14.6-11.3l0-21.4c0-0.5 0.4-0.9 0.7-0.9l7 0c0.5 0 0.9 0.4 0.9 0.9l0 23.1c0 3.4 2.2 5.6 5.9 5.6 4.5 0 6-2.6 6-7.3l0-21.3c0-0.5 0.4-0.9 0.7-0.9l7.1 0c0.5 0 0.9 0.4 0.9 0.9l0 20.5c0 9.1-7.3 12.2-14.7 12.2M113.8 45.9l-7 0c-0.4 0-0.7-0.4-0.7-0.9l0-22c0-2.5-0.3-5.4-5.2-5.4-2.5 0-5.4 1.5-6.8 2.3l0 25.2c0 0.5-0.4 0.9-0.9 0.9l-7.1 0c-0.3 0-0.7-0.4-0.7-0.9l0-31.2c0-0.5 0.4-0.9 1-0.9l6.6 0c0.5 0 0.9 0.3 0.9 0.9l0 1.7c2-1.3 6.6-3.3 10.6-3.3 7.1 0 10.2 4.1 10.2 10.1l0 22.7c0 0.5-0.3 0.9-0.9 0.9M131.2 46.7c-3.5 0-7.2-0.8-10-2.1-0.9-0.4-1.1-1.1-1.1-1.9l0-2.9c0-1 0.4-1.3 1.2-1.3 0.5 0 1 0.2 1.4 0.6 2.9 2.3 6.4 3.4 9.3 3.4 0 0 0 0 0 0 3.2 0 5.7-1.4 5.7-4.1 0-6.3-18.5-3.9-18.5-15.6 0-7.1 6.1-10.4 13-10.4 3.1 0 6.3 0.6 9.3 1.9 0.9 0.4 1.1 1.1 1.1 1.9l0 2.4c0 1-0.4 1.3-1.2 1.3-0.3 0-0.9-0.3-1.4-0.6-2.6-1.8-6.1-2.8-9.1-2.8-3 0-5.4 1.1-5.4 3.5 0 5.8 18.7 3.2 18.7 14.8 0 8.8-6.4 11.9-13.1 11.9M226.6 45.8l-7.1 0c-0.4 0-0.7-0.4-0.7-0.9l0-31.1c0-0.5 0.3-0.9 0.7-0.9l6.8 0c0.5 0 0.9 0.4 0.9 0.9l0.1 4c0 0 0 0 0 0 1.4-2 4.7-5.4 8.8-5.4 0 0 0 0 0 0 1 0 1.8 0 3.2 0.3 1 0.2 1.5 0.8 1.5 1.6l0 4.6c0 0.5-0.5 1-1 1-0.8 0-1.5-0.3-2.5-0.5-1-0.2-2.1-0.3-3.2-0.3-3.4 0-6.8 1.3-6.8 6.1l0 19.8c0 0.5-0.3 0.9-0.9 0.9" fill="#f47320"/><path d="m277.2 12.6c-1.7 0.5 1.7-3.6 1.1-5.7-0.6-2.2-3-5-1.3-5.7 1.7-0.7 4.9-0.6 5.8 0.5 2 3.8-0.7 10.2-5.6 10.9z" fill="#f47320"/><path d="m292.9 46.7c-3.5 0-7.2-0.8-10-2.1-0.9-0.4-1.1-1.1-1.1-1.9l0-2.9c0-1 0.4-1.3 1.2-1.3 0.5 0 1 0.2 1.4 0.6 2.9 2.3 6.4 3.4 9.3 3.4 0 0 0 0 0 0 3.2 0 5.7-1.4 5.7-4.1 0-6.3-18.5-3.9-18.5-15.6 0-7.1 6.1-10.4 13-10.4 3.1 0 6.3 0.6 9.3 1.9 0.9 0.4 1.1 1.1 1.1 1.9l0 2.4c0 1-0.4 1.3-1.2 1.3-0.3 0-0.9-0.3-1.4-0.6-2.6-1.8-6.1-2.8-9.1-2.8-3 0-5.4 1.1-5.4 3.5 0 5.8 18.7 3.2 18.7 14.8 0 8.8-6.4 11.9-13.1 11.9" fill="#f47320"/></svg>
