<svg xmlns="http://www.w3.org/2000/svg" version="1.1" x="0" y="0" width="1000" height="1000" viewBox="0 0 1000 1000" enable-background="new 0 0 1000 1000" xml:space="preserve"><path fill="#424297" d="M1000 500c0 276.2-223.9 500-500 500C223.9 1000 0 776.2 0 500 0 223.9 223.9 0 500 0 776.2 0 1000 223.9 1000 500zM284.4 568.8h-81.1l111-138v-12.5H178.9v54.6H190c5.5-35.8 7.8-41.7 21.4-41.7h72.3L173 569.2v12.5h142v-58.6h-11.1C299.2 561.8 297.3 568.8 284.4 568.8zM410 415c-41.3 0-76.7 35-76.7 86.7 0 50.9 33.6 83.4 76.7 83.4 41.3 0 76.7-34.7 76.7-86.3C486.7 447.8 453.1 415 410 415zM411.1 571.8c-25.8 0-52.4-21.8-52.4-71.2 0-49 24-72.3 50.2-72.3 25.8 0 52.4 22.1 52.4 71.5C461.2 548.9 437.2 571.8 411.1 571.8zM652.5 467.4c0-34.7-16.2-52.4-45-52.4 -19.2 0-42.4 10.3-62.7 45.7v-42.4h-50.9v14.7h28v133.9h-28v14.7h77.5v-14.7h-25.8v-79.3c0-21 24-53.1 51.6-53.1 8.5 0 16.2 1.9 22.1 8.1 7.4 7.4 9.6 19.9 9.6 38v86.3h-25.8v14.7h77.1v-14.7h-27.7V467.4zM760.6 415c-41.3 0-75.6 36.1-75.6 86.7 0 49.8 30.2 83.4 75.6 83.4 31.7 0 55-17.3 65.3-49.8h-13.7c-9.9 26.2-27.7 33.6-47.9 33.6 -31 0-53.5-23.6-53.9-67.9h116.6C828 457.4 807 415 760.6 415zM711.1 486.2c3.7-36.2 22.9-57.9 48.7-57.9 24.7 0 39.4 20.6 42 57.9H711.1z"/></svg>
