<svg xmlns="http://www.w3.org/2000/svg" preserveAspectRatio="xMidYMid" width="64" height="64" viewBox="0 0 64 64"><defs><style>.cls-1{fill:#111;fill-rule:evenodd;}</style></defs><path d="M43 41.2L43 37.3C43 37.1 43 36.8 43.2 36.6 43.3 36.3 43.5 36.1 43.9 36L49 33.2C49.3 33 49.6 32.9 50 32.8 50.3 32.7 50.7 32.6 51.1 32.5 50.7 32.4 50.3 32.3 50 32.2 49.6 32.1 49.3 31.9 49 31.8L43.9 29C43.5 28.8 43.3 28.6 43.2 28.4 43 28.2 43 27.9 43 27.6L43 23.8 57.5 31.4 57.5 33.6 43 41.2ZM28.9 45.3C28.7 45.5 28.5 45.7 28.2 45.9 28 46.1 27.7 46.2 27.4 46.3 27.1 46.4 26.8 46.4 26.5 46.4L24.2 46.4 34.4 19.6C34.6 19 35 18.5 35.5 18.2 36 17.9 36.6 17.7 37.2 17.7L39.6 17.7 29.5 44.4C29.3 44.7 29.2 45 28.9 45.3ZM6.1 31.4L20.6 23.8 20.6 27.6C20.6 27.9 20.6 28.2 20.4 28.4 20.3 28.6 20.1 28.8 19.7 29L14.6 31.8C14.3 31.9 14 32.1 13.6 32.2 13.3 32.3 12.9 32.4 12.5 32.5 12.9 32.6 13.3 32.7 13.6 32.8 14 32.9 14.3 33 14.6 33.2L19.7 36C20.1 36.1 20.3 36.3 20.4 36.6 20.6 36.8 20.6 37.1 20.6 37.3L20.6 41.2 6.1 33.6 6.1 31.4Z" class="cls-1"/></svg>
