<svg xmlns="http://www.w3.org/2000/svg" preserveAspectRatio="xMidYMid" viewBox="0 0 64 64">
  <style>
    path {
      fill: #111;
    }

    @media (prefers-color-scheme: dark) {
      path {
        fill: #fff;
      }
    }
  </style>
  <path fill-rule="evenodd" d="M43 41.2v-3.9c0-.2 0-.5.2-.7.1-.3.3-.5.7-.6l5.1-2.8c.3-.2.6-.3 1-.4.3-.1.7-.2 1.1-.3-.4-.1-.8-.2-1.1-.3-.4-.1-.7-.3-1-.4L43.9 29c-.4-.2-.6-.4-.7-.6-.2-.2-.2-.5-.2-.8v-3.8l14.5 7.6v2.2L43 41.2zm-14.1 4.1c-.2.2-.4.4-.7.6-.2.2-.5.3-.8.4-.3.1-.6.1-.9.1h-2.3l10.2-26.8c.2-.6.6-1.1 1.1-1.4.5-.3 1.1-.5 1.7-.5h2.4L29.5 44.4c-.2.3-.3.6-.6.9zM6.1 31.4l14.5-7.6v3.8c0 .3 0 .6-.2.8-.1.2-.3.4-.7.6l-5.1 2.8c-.3.1-.6.3-1 .4-.3.1-.7.2-1.1.3.4.1.8.2 1.1.3.4.1.7.2 1 .4l5.1 2.8c.4.1.6.3.7.6.2.2.2.5.2.7v3.9L6.1 33.6v-2.2z"/>
</svg>