<svg viewBox="0 0 416 416"><path fill="#1D1D1B" fill-rule="evenodd" d="M208 96c-61.75 0-112 50.25-112 112 0 61.749 50.25 112 112 112s112-50.251 112-112c0-61.75-50.25-112-112-112zm0-32c8.833 0 16-7.146 16-16V16c0-8.833-7.167-16-16-16-8.854 0-16 7.167-16 16v32c0 8.854 7.146 16 16 16zm0 288c-8.854 0-16 7.167-16 16v32c0 8.854 7.146 16 16 16 8.833 0 16-7.146 16-16v-32c0-8.833-7.167-16-16-16zm124.417-245.833l22.625-22.625c6.25-6.25 6.25-16.375 0-22.625-6.251-6.25-16.375-6.25-22.625 0l-22.625 22.625c-6.251 6.25-6.251 16.375 0 22.625 6.25 6.249 16.374 6.249 22.625 0zM83.541 309.854l-22.623 22.625c-6.252 6.25-6.252 16.376 0 22.625 6.249 6.25 16.373 6.25 22.623 0l22.625-22.625c6.251-6.291 6.251-16.375 0-22.625-6.249-6.25-16.374-6.292-22.625 0zM64 208c0-8.833-7.167-16-16-16H16c-8.854 0-16 7.167-16 16 0 8.854 7.146 16 16 16h32c8.833 0 16-7.146 16-16zm336-16h-32c-8.854 0-16 7.167-16 16 0 8.854 7.146 16 16 16h32c8.833 0 16-7.146 16-16 0-8.833-7.167-16-16-16zM83.521 106.167c6.249 6.25 16.375 6.25 22.625 0 6.249-6.25 6.249-16.375 0-22.625L83.521 60.917c-6.25-6.25-16.376-6.25-22.625 0-6.25 6.25-6.25 16.375 0 22.625l22.625 22.625zm248.938 203.645c-6.293-6.25-16.376-6.25-22.625 0-6.25 6.249-6.293 16.375 0 22.625l22.625 22.625c6.249 6.249 16.374 6.249 22.625 0 6.249-6.25 6.249-16.376 0-22.625l-22.625-22.625z"/></svg>
