<svg xmlns="http://www.w3.org/2000/svg" width="781" height="170" viewBox="0 0 781 170" version="1.1"><g stroke="none" stroke-width="1" fill="none" fill-rule="evenodd"><path d="M732.3 0C703.1 0 673.9 16.9 673.9 49.9 673.9 78 692.4 87.2 712.3 94.9 729.6 101.8 746.9 106.8 746.9 121.4 746.9 136 735 142.5 717.7 142.5 703.1 142.5 687.4 137.2 676.6 129.5L672.7 159.8C684.6 165.2 700.4 169 717.7 169 753.4 169 780.3 151.8 780.3 118.7 780.3 92.2 764.2 81.8 743.1 72.6 725.8 66.1 706.9 61.8 706.9 46.1 706.9 31.5 723.1 26.1 735 26.1 748.5 26.1 758.8 28.8 769.6 34.2L772.3 9.2C761.5 3.8 749.6 0 732.3 0L732.3 0ZM61.1 3.8L0 164.1 33 164.1 79.5 36.9 127.2 164.1 163.3 164.1 101.1 3.8 61.1 3.8 61.1 3.8ZM140.6 3.8L151.4 28.8 195.2 28.8 195.2 164.1 226.7 164.1 226.7 28.8 273.2 28.8 273.2 3.8 140.6 3.8 140.6 3.8ZM292.8 3.8L292.8 164.1 324.7 164.1 324.7 89.5 383.8 164.1 425.3 164.1 356.6 79.5 422.6 3.8 383.8 3.8 324.7 72.6 324.7 3.8 292.8 3.8 292.8 3.8ZM444.2 3.8L444.2 164.1 475.3 164.1 475.3 3.8 444.2 3.8 444.2 3.8ZM512.1 3.8L512.1 164.1 541.3 164.1 541.3 45.7 605.5 164.1 645.1 164.1 645.1 3.8 614.4 3.8 614.4 121.4 551 3.8 512.1 3.8 512.1 3.8Z" fill="#000000"/></g></svg>
