<svg xmlns="http://www.w3.org/2000/svg" width="1196" height="301" viewBox="0 0 1196 301" version="1.1"><g stroke="none" stroke-width="1" fill="none" fill-rule="evenodd"><path d="M114.4 162C122.8 152.9 129 139.8 128.7 125.9 128.1 101.5 104.7 80.8 68.8 81.6 34.7 82.3-0.6 112.7 0 142.6 0.4 160.3 10.1 169.3 23.5 169 36.1 168.7 46.5 157.7 46.3 145 46.2 139.5 43.6 134.8 38.5 135 36 135.1 34.7 136.4 33.8 138 31.6 141.7 28.9 146.7 22.9 146.9 18.3 147 14.5 143.7 14.4 138.5 14.1 123.3 29.3 100.2 69.3 99.3 89.3 98.9 108.2 110.8 108.6 131.2 108.9 146.4 104.1 157.9 84.5 164.9 81.7 165.8 78.8 170 78.9 175.5 78.9 176.8 79.2 178.1 79.5 179.4 84.5 179.3 95.4 176.9 101.4 173.4 114.5 182 121.2 191 121.5 206.2 121.9 225.1 104.8 244.6 80.8 245.1 76.8 245.2 72.7 245.3 68.9 244.8 66.2 235.4 64.7 224.9 64.5 215.3 64 189.7 69.3 149 84.5 126.4 85.2 125.3 85.5 124.5 85.5 123.7 85.4 119.8 81.8 116.2 77.3 116.3 74.8 116.4 72.3 117.5 70.3 120.1 53.8 143.8 43.1 186.1 43.8 223.1 43.9 227.3 44.2 232.2 45.1 237.5 41.2 234.7 38.7 232.7 36.6 230.4 28 230.6 23 234.6 23.1 239.4 23.2 247 33.3 256.9 51.6 262.3 56.9 276.1 64.8 288.2 75.1 299 76.6 300.5 78.4 301 80.5 301 87.3 300.8 90.7 294.5 90.6 287.9 90.5 285 89.7 282.2 88.2 280.6 84.6 276.5 81.4 271.8 78 265.9 79.8 265.8 80.8 266.1 81.8 266.1 112.1 265.4 141.7 247.3 140.9 204.9 140.3 189.2 131.9 172.4 114.4 162ZM223.8 201.3C221 199 219.6 195.4 219.6 192.2 219.6 190.9 220.1 189.1 220.5 187.5 221.2 185.4 221.9 183.3 221.9 181.7 221.9 179.1 220.5 175.9 218.2 174.7 215.9 173.4 214.6 171.9 212.8 169.1 209.7 164.2 206.5 158.8 198.4 158.9 186 159.2 156.2 188.7 156.7 211.7 156.9 224 163 237.2 180.5 236.9 192.4 236.6 205.5 220.9 210.4 215.8 214.5 219.1 222 225 226.9 230.1 230.4 230 240.5 226.4 240.4 220.9 240.3 217.9 232.5 207.9 223.8 201.3ZM182.3 215.3C180 215.3 176.2 212.5 176.1 208.4 175.8 193.7 187.3 175.9 193.7 175.8 196.2 175.7 198.6 180.1 198.7 183.5 199 202.1 187.4 215.2 182.3 215.3ZM326.2 229.4C313.4 218 293.4 204.4 293.4 198 293.4 191.7 302.1 176.8 312.3 163.9 317.8 156.9 311.6 149.3 301.1 156.2 290.6 163.1 273.2 187.6 273.2 187.6L272.6 171C271.9 161.9 270.4 149.4 270.8 140 273.1 76.1 288.9 66 283.9 61.2 266.4 44.8 253.3 97.2 254.1 140.3 257.1 186 256.3 215.5 251 230.1 251.4 235.8 257.3 239.3 262.6 238.9 263.4 238.8 266.7 233.3 268.1 227.4 269.2 222.1 271.5 214.8 274.2 210.4 289.1 219.2 304.8 232.7 319.4 244.5 322.4 246.9 324.7 247.5 328.2 247.2 332.2 246.9 333.7 242.6 333.4 239.4 333.1 236 328.4 231.3 326.2 229.4ZM353.9 89.8C350.4 89.9 343.9 94.8 344 99.7 344.1 104.7 349.3 110.3 354.8 110.2 357.3 110.2 362.8 103 362.6 95.9 362.6 93.5 358.4 89.7 353.9 89.8ZM351.4 142C351.3 138.9 349.3 137.6 346.5 137.7 341.9 137.8 340.7 140.2 337.6 148.6 331.8 164.1 328.9 181.7 329.1 193.5 329.4 209.2 332.1 217.1 340.4 216.9 342.9 216.8 350.2 214.6 350 205.7 349.9 203.1 348.1 197.4 347.8 186.1 347.5 170.6 348 158.6 349.4 151 350.5 146.3 351.4 143.1 351.4 142ZM443.1 165.4C441.1 155.7 438.7 146.5 430.2 146.6 417.1 146.9 406.7 160.1 399.5 169.2 396 173.5 393.3 176.9 391.1 177.2 389.5 174.6 388.7 170.5 388.6 165.2 388.5 158.1 389.6 149 392.9 137.9 392.8 134.7 388 130.4 383.9 130.5 379.3 130.6 375.4 135.4 374.3 143.3 372.1 158.2 371 178.7 371.5 205.1 371.7 215.6 375.1 221 379.9 220.9 383.4 220.8 388.2 217 390.9 212.8 395.6 205.6 399.2 196.9 402.8 189.2 408.4 177.5 413.8 167.7 421.3 167.6 424.6 167.5 425.7 172.2 426.8 178.5 429.6 194.2 432.4 207.2 445.7 206.9 448.2 206.9 452.9 201.3 452.8 196.8 452.7 193.9 450.4 190.6 449.3 187.2 447.2 180.7 445.6 177.1 443.1 165.4ZM529.1 198.1C526.7 179.6 525.4 163.3 521.7 145.2 522.6 142.1 523.3 137.8 523.2 134.4 523.1 130.5 521.2 122.6 512.9 122.8 510.6 122.9 508.9 124.2 507.4 126.1 506.1 125.9 504.6 125.6 503.1 125.6 485.9 126 460.4 155 460.9 178.1 461.1 188.8 464.4 201.1 481.8 200.7 491.4 200.5 502.4 191.6 509.8 182.5 512.2 186.9 514.6 195.5 514.7 200.7 494.1 210.3 480.6 230.8 481 249.4 481.4 269 489.7 280.8 502.4 280.6 523.1 280.2 533.2 253.2 532.7 228.7 532.6 223.7 532.2 216.4 531.1 211.7 532.6 211.6 534.6 212.4 536.7 213.1 539.5 214.4 542.6 215.9 544.9 215.8 548.7 215.7 550.1 212.8 550 206.2 549.9 199 537 198 529.1 198.1ZM504.9 162.8C498.8 175.3 489.5 179.1 485.5 179.2 483.2 179.3 479.4 177.5 479.3 173.3 479 158.6 491.1 143 497.4 142.9 499.9 142.9 505.1 146.4 505.1 149.8 505.2 153.3 505.1 159.9 504.9 162.8M504 257.8C499.7 257.9 497.5 251.6 497.4 243.4 497.2 232.1 503.8 221.3 516.6 214.7 517.5 218.9 518 224.1 518.2 229.9 518.4 244.8 509.1 257.7 504 257.8ZM796.5 210.7C747.2 204 736.4 128.9 732.1 90.1 731.4 83.3 729.4 51.4 728.8 45.8 728.3 41.3 724.3 38.9 718.7 39.6 713.7 40.2 711.9 44.6 710.7 54.4 708.5 71.5 695.6 118.7 687.2 138.1 676.1 122.8 652.7 71.7 645.8 52.5 643.6 46.5 640.2 43.5 636.7 43.9 632.9 44.3 628.6 48.8 628.9 51.8 629.3 55.5 632.4 70.1 633 75.6 639.7 137 635.8 199.4 597.1 203.9 586.8 205.1 577.1 200.4 575.8 188.2 575.2 182.5 578.9 174.7 585.7 173.9 590.7 173.3 596.6 180.3 600.2 187.8 600.2 188.1 600.8 188.3 601.8 188.2 606.1 187.7 614.3 181.7 613.7 175.7 612 160.1 600.8 153.2 585.2 155 572.9 156.4 560.2 173.4 562 189.6 564.8 215.4 580.2 225.5 600.3 223.1 631.5 219.5 654.7 197.2 649.5 107.3 659.8 124.8 679.3 172.8 679.9 178.2 680.4 183.1 687.6 183.9 690.9 183.5 693.7 183.2 697.9 177.7 698.3 169.7 698.9 158.8 708.3 120.9 717.8 96.9L719.8 115.1C731.1 218.9 773.9 234.2 797.5 231.5 802 230.9 804 221 803.6 217.1 803.2 213.3 800.4 211.3 796.5 210.7ZM831.3 138.1C828.5 135.8 827.2 132.1 827.1 129 827.1 127.7 827.6 125.8 828 124.2 828.7 122.1 829.5 120 829.4 118.4 829.4 115.8 828.1 112.6 825.8 111.4 823.5 110.1 822.2 108.6 820.4 105.7 817.3 100.8 814.2 95.3 806.1 95.4 793.8 95.6 763.8 124.9 764.2 147.9 764.4 160.1 770.3 173.4 787.8 173.2 799.7 173 812.9 157.4 817.9 152.3 822 155.7 829.4 161.6 834.3 166.8 837.8 166.8 847.9 163.2 847.8 157.7 847.7 154.8 840 144.8 831.3 138.1ZM789.7 151.7C787.4 151.8 783.6 149 783.5 144.8 783.3 130.1 795 112.4 801.3 112.3 803.8 112.3 806.1 116.7 806.2 120.1 806.5 138.7 794.8 151.6 789.7 151.7ZM926.9 125.2C953.4 81.1 960.8 47 960.5 22.3 960.3 11.1 956.2-0.1 947 0 922.5 0.3 907.8 57.6 908.1 85.4 908.2 90.9 907.7 96.9 907.8 105.3 905.3 104.5 902.2 104.6 900.5 104.6 879.5 104.9 856 128.3 856.3 150.3 856.5 162.5 861.4 171.6 878.8 171.4 893 171.2 906.2 156.9 914.6 144.3 921.8 156.4 932.1 169.6 943.3 177.9 948.9 177.8 954.6 174.3 954.6 168.6 954.6 167 954.3 165.5 953 164.2 943.7 155.5 930.9 138.5 926.9 125.2ZM882 151.4C879.7 151.5 875.9 148.7 875.8 144.5 875.6 129.8 887.4 120 893.7 119.9 902.3 119.8 905.4 124.5 905.5 130.5 902.6 143.6 887 151.3 882 151.4L882 151.4ZM922.4 92.5C922 63.9 929.4 24.4 938 24.2 941.5 24.1 942.9 30.4 943 37 943.1 46.4 938.2 73.1 922.6 101.9L922.4 92.5ZM969.7 127.8C966.3 128.1 960.3 132.8 960.8 138.9 961.2 143.4 965.3 146.8 971.6 146.3 974 146.1 978.3 141.2 977.7 133.5 977.6 132.2 974 127.4 969.7 127.8ZM1035.9 132.3C1033.6 132.5 1029.4 133.8 1026.6 134 1012.9 135.2 1001.5 123.2 1001.1 117.3 999.8 102.5 1009.2 95.3 1015.4 94.8 1017.1 94.7 1020 100.3 1020.1 101.4 1021.7 102.6 1023.6 103.2 1026.4 102.9 1028.8 102.7 1030.6 101 1030.4 98.4 1030.2 95.8 1030.6 89.5 1031.2 86.1 1030.9 83.1 1027.3 82.3 1023.2 82.6 1000.7 84.5 988.2 105.9 989.4 119.8 991.2 141.7 1014.1 149 1025.7 148 1035.6 147.2 1041.3 138.9 1041.1 135.6 1040.9 134.2 1037.2 132.2 1035.9 132.3ZM1059.7 87.4C1057.1 87.6 1054.8 90.1 1055.2 94.2 1049.2 103.4 1044.8 112.3 1045.5 121.6 1046.5 133.6 1059.7 141.1 1070 140.3 1085.2 139 1092 121.5 1091 110.4 1089.6 93.7 1069.2 86.5 1059.7 87.4ZM1069.5 125.5C1062.9 126.1 1057.2 122.6 1056.7 117.5 1056.1 110.9 1060.7 102.8 1065.2 102.4 1070.8 101.9 1075.1 108.2 1075.6 113.6 1076.1 119.3 1072.7 125.3 1069.5 125.5ZM1193.3 113.5C1191.4 110.7 1188.1 98.9 1187 94.3 1185 86.7 1180.9 80.3 1171.9 81.1 1167.8 81.4 1157.3 93.8 1152.7 99.3 1149.2 96 1147 90.6 1146.1 87.8 1144.1 82 1142.6 77.9 1138.5 78.3 1133.4 78.7 1124.8 87.8 1119.6 93.7 1118.3 91.2 1117.9 88.8 1117.6 86.1L1117.4 84.2C1117.2 82.3 1115.9 80.2 1113.5 80.4 1107.1 80.9 1106.5 88.9 1105.8 96.3 1105.7 97.8 1105.1 103.6 1104.5 110 1103.8 117.8 1103.2 126.1 1103.4 128.4 1103.9 133.8 1105.7 135.8 1108.9 135.5 1112.1 135.2 1114.4 131.3 1115.3 127.2 1117.7 117.6 1128.5 94.4 1136.2 93.7 1139.4 93.4 1141.7 98.7 1142.5 108.3 1143.3 117.7 1146.2 125.4 1149.6 125 1151.9 124.8 1156.4 121 1158.4 117.1 1161 111.8 1166.6 100.6 1172.7 96.3 1176.5 98.8 1178 103.8 1179.4 110.8 1181.1 119.2 1182.3 127.4 1189.1 126.8 1191.3 126.6 1196.1 120.5 1196 119.2 1195.9 117.8 1195.2 116.4 1193.3 113.5Z" fill="#000000"/></g></svg>
