<svg xmlns="http://www.w3.org/2000/svg" width="299" height="86" viewBox="0 0 299 86" version="1.1"><g stroke="none" stroke-width="1" fill="none" fill-rule="evenodd"><path d="M162 30.1C162 20.9 150.5 21.4 150.5 21.4L139 21.4 139 38.2 150.5 38.2C162.3 38.2 162 30.1 162 30.1L162 30.1ZM139 63.7L147.7 63.7C156.9 63.2 156.5 56.4 156.5 56.4 156.5 48 146.4 47.8 146.4 47.8L139 47.8 139 63.7 139 63.7ZM159.9 44.5C159.9 44.5 167.8 47.9 167.7 56.8 167.7 56.8 168.9 71.4 149.5 73.2L128.1 73.2 128.1 12 152.7 12C152.7 12 173.2 11.9 173.2 29.3 173.2 29.3 173.7 41.1 159.9 44.5L159.9 44.5ZM104.3 85.2L194.7 85.2 194.7 0 104.3 0 104.3 85.2ZM57.7 30.1C57.7 20.9 46.2 21.4 46.2 21.4L34.7 21.4 34.7 38.2 46.2 38.2C58.1 38.2 57.7 30.1 57.7 30.1ZM34.7 63.7L43.5 63.7C52.6 63.2 52.2 56.4 52.2 56.4 52.2 48 42.1 47.8 42.1 47.8L34.7 47.8 34.7 63.7 34.7 63.7ZM55.6 44.5C55.6 44.5 63.5 47.9 63.4 56.8 63.4 56.8 64.6 71.4 45.3 73.2L23.8 73.2 23.8 12 48.4 12C48.4 12 69 11.9 69 29.3 69 29.3 69.4 41.1 55.6 44.5L55.6 44.5ZM0 85.2L90.4 85.2 90.4 0 0 0 0 85.2ZM280.6 68.8L280.6 57.5C280.6 57.5 269.5 64.3 257.3 64.4 257.3 64.4 234.5 64.9 233.5 42.6 233.5 42.6 232.7 22.1 257 21 257 21 267.2 19.7 281.1 28.6L281.1 16.8C281.1 16.8 262.5 5.8 241 14.3 241 14.3 222.9 20.9 222.2 42.6 222.2 42.6 221.4 64.9 245.6 72.3 245.6 72.3 252 74.8 263.6 73.7 263.6 73.7 270.5 73 280.6 68.8ZM208.6 0L299 0 299 85.2 208.6 85.2 208.6 0 208.6 0Z" fill="#000000" transform="translate(149.499999, 42.609527) scale(1, -1) translate(-149.499999, -42.609527) "/></g></svg>
