<?xml version="1.0" encoding="UTF-8" standalone="no"?>
<svg width="226px" height="40px" viewBox="0 0 226 40" version="1.1" xmlns="http://www.w3.org/2000/svg" xmlns:xlink="http://www.w3.org/1999/xlink" xmlns:sketch="http://www.bohemiancoding.com/sketch/ns">
    <!-- Generator: Sketch 3.4 (15588) - http://www.bohemiancoding.com/sketch -->
    <title>Group</title>
    <desc>Created with Sketch.</desc>
    <defs></defs>
    <g id="Page-1" stroke="none" stroke-width="1" fill="none" fill-rule="evenodd" sketch:type="MSPage">
        <g id="gatwick" sketch:type="MSLayerGroup" fill="#000000">
            <g id="Group" sketch:type="MSShapeGroup">
                <path d="M146.39,28.5 C147.6,27.4 148.58,26.79 149.37,26.51 C149.95,26.3 150.41,26.25 150.78,26.35 C150.94,26.39 151.28,26.54 151.16,27.02 C151.01,27.61 149.95,28.96 148.48,30.29 C147.33,31.32 146.14,32.03 145.27,32.05 C144.95,32.06 144.82,31.89 144.76,31.8 C144.55,31.48 144.61,30.11 146.39,28.5 M134.3,31.1 L134.36,31.1 C133.42,32.41 132.43,33.63 130.9,35.22 C128.59,37.61 126.55,38.43 125.01,38.88 C123.26,39.38 123.87,39.75 125.07,39.71 C126.69,39.65 129.82,38.95 132.45,37.03 C133.96,35.92 135.04,34.94 136.49,33.48 L142.03,29.93 L142.07,29.93 C141.71,30.48 141.55,31 141.51,31.48 C141.5,31.57 141.43,32.28 141.92,32.83 C142.32,33.28 142.96,33.45 143.88,33.42 C145.18,33.38 146.63,32.84 148.24,31.61 L148.28,31.61 C148.21,31.9 148.23,32.11 148.23,32.2 C148.27,32.71 148.62,33.43 150,33.42 C151.44,33.41 152.9,32.66 154.36,31.67 C155.4,30.97 157.59,29.22 157.76,29.05 L157.8,29.05 C157.07,30.1 156.56,31.2 156.55,31.9 C156.55,32.26 156.63,33.42 158.4,33.42 C160.38,33.42 161.85,32.1 162.52,31.61 C163.16,31.15 164.87,29.83 165.54,29.32 C165.95,29.01 166.53,28.57 167.11,28.16 C167.25,28.05 167.75,27.7 167.88,27.61 L167.92,27.61 C167.41,28.18 166.63,29.11 166.27,29.6 C165.31,30.9 165.22,31.42 165.18,31.78 C165.12,32.78 165.78,33.46 166.9,33.44 C168.62,33.44 170.42,32.24 171.68,31.26 C172.09,30.94 172.58,30.57 173.07,30.18 L173.11,30.18 C172.71,30.76 172.5,31.39 172.53,31.88 C172.55,32.45 172.9,33.43 174.66,33.43 C176.27,33.43 177.61,32.95 179.74,31.35 C180.35,30.89 181.36,29.97 181.77,29.55 C182.08,29.64 182.49,29.65 182.8,29.61 C183.69,29.53 184.24,29.26 184.99,28.76 C185.17,28.64 185.58,28.35 185.93,28.1 L185.97,28.1 C185.29,28.85 184.65,29.52 184.2,30.25 C183.79,30.91 183.59,31.48 183.57,31.98 C183.55,32.52 183.73,33.38 185.32,33.41 C186.99,33.45 188.27,32.83 189.68,31.79 C190.24,31.39 191.57,30.32 192.21,29.87 L192.25,29.87 C191.97,30.36 191.84,30.85 191.83,31.26 C191.81,32.63 192.77,33.4 194.68,33.4 L194.72,33.4 C196.46,33.41 198.1,32.9 200.08,31.5 C200.85,30.95 201.85,30.2 202.85,29.47 L202.89,29.47 C202.21,30.49 201.35,31.76 201.07,32.24 C200.95,32.44 200.92,32.57 200.92,32.7 C200.92,32.8 200.94,32.93 200.99,33.02 C201.15,33.28 201.49,33.33 202.11,33.33 C203.35,33.32 203.41,33.36 203.99,32.83 C204.54,32.33 205.04,31.84 205.96,30.98 C206.12,30.83 206.61,30.39 206.89,30.17 C207.84,30.69 209.57,31.57 209.89,31.73 C213.66,33.54 215.62,33.93 218.67,33.93 C221.09,33.93 222.93,33.5 224.42,32.78 C224.47,32.75 224.64,32.66 224.73,32.61 C225.22,32.33 225.49,32.05 225.49,31.88 C225.49,31.68 225.12,31.64 224.32,31.92 C224.28,31.93 224.12,31.98 224.09,31.99 C222.45,32.47 220.97,32.7 218.53,32.33 C216.58,32.03 215.54,31.51 214.03,30.87 C213.67,30.72 212.53,30.16 212.28,30.03 C211.44,29.61 210.49,29.14 209.1,28.39 C210.45,27.3 212.02,26.37 213.39,26.28 C213.67,26.25 213.8,26.42 213.92,26.68 C214.12,27.12 214.62,27.42 215.29,27.42 C216.1,27.42 216.76,26.95 216.76,26.27 C216.76,25.53 216.26,25.14 215.29,25.12 C212.98,25.05 210.85,26.02 208.94,27.44 C208.15,28.03 207.28,28.77 206.56,29.33 L206.52,29.33 C206.64,29.16 207.09,28.54 207.23,28.34 C208.99,25.94 210.44,24.29 210.91,23.73 C211.55,22.97 212.41,21.97 213.29,21.01 C214.41,19.76 215.41,18.97 215.31,18.72 C215.17,18.36 213.72,18.78 212.41,19.41 C212.14,19.54 210.89,20.22 209.66,21.4 C208.23,22.8 207.72,23.48 205.16,26.29 C204.66,26.84 203.82,27.67 202.95,28.37 C201.8,29.31 200.63,30.12 199.59,30.8 C197.54,32.12 196.74,32.15 196.12,32.11 C195.8,32.08 195.34,31.91 195.18,31.34 C194.97,30.57 195.16,29.39 196.77,27.71 C197.85,26.59 198.7,26.33 199.19,26.29 C199.49,26.26 199.59,26.51 199.69,26.69 C199.89,27.13 200.4,27.41 201.05,27.41 C201.85,27.41 202.51,26.94 202.51,26.26 C202.51,25.5 202.01,25.13 201.05,25.11 C200.27,25.09 199.62,25.16 198.9,25.3 C197.58,25.53 196.43,26.14 195.68,26.51 C194.83,26.91 193.76,27.68 193.57,27.83 C193.03,28.24 192.6,28.51 192.03,28.96 C191.58,29.31 190.61,30.08 190,30.54 C189.18,31.18 188.43,31.58 188.12,31.74 C187.73,31.92 187.38,31.98 187.24,31.86 C187.04,31.7 187.16,31.46 187.36,31.15 C187.54,30.86 187.95,30.25 188.74,29.24 C189.58,28.16 191.14,26.46 191.14,26.46 C191.54,26.05 191.47,25.82 191.44,25.74 C191.3,25.42 190.94,25.35 189.89,25.35 C188.67,25.35 188.16,25.41 186.85,26.44 C185.67,27.36 185.29,27.69 184.64,28.15 C184.08,28.55 183.39,28.92 182.53,28.9 C182.87,28.65 183.49,28.03 183.85,27.52 C184.59,26.47 184.54,25.49 184.01,25.23 C183.37,24.94 182.34,25.34 181.54,26.61 C181.03,27.46 180.9,28.29 181.14,28.96 C180.67,29.45 179.59,30.38 179.18,30.68 C178.08,31.46 177.6,31.69 177,31.94 C176.34,32.22 176.03,32.07 175.93,31.99 C175.88,31.94 175.83,31.85 175.84,31.73 C175.84,31.56 175.9,31.4 176.02,31.18 C176.33,30.6 176.72,30.02 177.39,29.11 C177.93,28.38 178.29,27.93 178.76,27.35 L179.48,26.44 C179.64,26.23 179.88,25.96 179.77,25.73 C179.67,25.5 179.37,25.34 178.6,25.34 C177.2,25.33 177,25.54 176.57,25.93 C175.06,27.27 174.27,28.14 172.19,29.75 C171.1,30.6 170.2,31.29 169.2,31.78 C168.62,32.07 168.27,31.82 168.52,31.43 C168.98,30.7 169.47,30.1 170.18,29.22 C171,28.21 171.77,27.26 172.53,26.41 C172.66,26.27 172.93,25.95 172.78,25.71 C172.63,25.45 172.23,25.37 171.4,25.35 C169.53,25.31 169.06,25.77 168.09,26.45 C167.06,27.17 166.03,27.92 165.2,28.51 C164.54,28.99 163.36,29.85 162.66,30.37 C161.82,30.99 161.27,31.36 160.8,31.64 C160.2,31.99 159.92,31.95 159.76,31.83 C159.6,31.71 159.72,31.45 159.87,31.16 C160.51,29.98 162.28,27.39 163.15,26.34 L165.81,26.34 C166.09,26.34 166.38,26.21 166.44,25.85 C166.48,25.6 166.3,25.36 166.03,25.36 L163.88,25.37 C164.59,24.47 165.18,23.75 166.01,22.78 C167.04,21.59 167.53,21.14 168.12,20.55 C168.79,19.87 167.81,20.03 167.81,20.03 C164.97,20.43 163.19,22.39 163.19,22.39 C162.38,23.18 161.97,23.59 160.45,25.37 L158.63,25.37 C158.35,25.37 158.06,25.51 158,25.86 C157.96,26.11 158.13,26.35 158.4,26.35 L159.53,26.35 C159.47,26.41 158.42,27.39 157.64,28.03 C157.64,28.03 156.23,29.19 154.46,30.45 C153.8,30.92 153.01,31.45 152.34,31.75 C151.67,32.06 151.5,31.85 151.46,31.73 C151.42,31.6 151.48,31.4 151.64,31.16 C151.64,31.16 152.32,30.21 153.11,29.2 C153.91,28.17 154.69,27.29 155.43,26.44 C155.54,26.3 155.83,26.03 155.7,25.71 C155.58,25.41 155.11,25.34 154.36,25.34 C153.16,25.34 152.79,25.46 151.98,26.28 L152,26.28 C151.96,26.1 151.9,25.93 151.8,25.78 C151.62,25.54 151.25,25.23 150.52,25.21 C149.38,25.14 147.99,25.47 146.4,26.19 C145.34,26.67 144.55,27.1 143.82,27.6 C143.83,27.59 142.69,28.36 142.69,28.36 L140.38,29.89 C139.51,30.47 138.27,31.26 137.46,31.73 L137.42,31.73 C137.72,31.34 138.72,29.97 139.07,29.48 C139.07,29.48 140.97,26.94 141.45,26.26 C141.96,25.53 141.34,25.3 140.37,25.31 C139.25,25.32 138.53,25.45 137.98,26.09 C137.4,26.76 136.97,27.28 136.43,27.81 C132.88,31.36 130.11,31.73 128.77,31.73 C128.08,31.73 127.49,31.58 127.22,31.21 C127,30.9 126.94,30.5 126.98,30.07 C127.13,28.18 129.05,25.17 132.5,22.53 C134.71,20.83 137.87,19.18 141.36,19.07 C141.8,19.05 142.22,19.22 141.89,19.83 C141.19,21.1 141.92,21.93 143,21.95 C144.03,21.98 144.98,21.51 145.29,20.69 C145.66,19.71 145.34,18.88 144.83,18.48 C144.43,18.16 143.82,17.94 142.87,17.9 C136.94,17.63 132.03,20.1 130.91,20.72 C128.8,21.88 125.47,24.28 123.81,27.06 C123.25,27.99 122.91,28.89 122.82,29.64 C122.59,31.66 123.32,33.5 126.9,33.46 C129.34,33.41 132.04,32.68 134.3,31.1 M194.65,21.41 C195.42,20.36 194.78,19.55 193.98,19.46 C193.73,19.43 193.51,19.42 193.25,19.47 C192.78,19.56 192.4,19.79 192.03,20.16 C190.82,21.38 191.7,22.93 191.7,22.93 C191.7,22.93 193.62,22.83 194.65,21.41" id="Shape"></path>
                <rect id="Rectangle-path" x="157.4" y="0.73" width="1.43" height="11.4"></rect>
                <path d="M4.89,7.63 L0.5,0.73 L2.12,0.73 L5.59,6.58 L9.08,0.73 L10.69,0.73 L6.3,7.63 L6.3,12.14 L4.89,12.14 L4.89,7.63 Z" id="Shape"></path>
                <path d="M82.61,0.73 L84.45,0.73 L91.19,10.62 L91.21,10.62 L91.21,0.73 L92.38,0.73 L92.38,12.14 L90.52,12.14 L83.81,2.27 L83.78,2.27 L83.78,12.14 L82.61,12.14 L82.61,0.73 Z" id="Shape"></path>
                <path d="M125.12,0.73 L126.97,0.73 L133.69,10.62 L133.73,10.62 L133.73,0.73 L134.89,0.73 L134.89,12.14 L133.03,12.14 L126.32,2.27 L126.28,2.27 L126.28,12.14 L125.12,12.14 L125.12,0.73 Z" id="Shape"></path>
                <path d="M98.04,11.06 L100.62,11.06 C103.23,11.06 105.21,9.68 105.21,6.43 C105.21,3.18 103.23,1.8 100.62,1.8 L98.04,1.8 L98.04,11.06 L98.04,11.06 Z M96.63,0.73 L101.23,0.73 C103.47,0.73 106.66,2.23 106.66,6.44 C106.66,10.65 103.47,12.15 101.23,12.15 L96.63,12.15 L96.63,0.73 L96.63,0.73 Z" id="Shape"></path>
                <path d="M146.19,8.24 L151.62,8.24 L149.07,1.82 L148.73,1.82 L146.19,8.24 L146.19,8.24 Z M154.63,12.14 L153.1,12.14 L152,9.33 L145.8,9.33 L144.68,12.14 L143.15,12.14 L147.8,0.73 L149.97,0.73 L154.63,12.14 L154.63,12.14 Z" id="Shape"></path>
                <path d="M219.79,1.82 L216.1,1.82 L216.1,12.14 L214.66,12.14 L214.66,1.82 L210.98,1.82 L210.98,0.73 L219.79,0.73 L219.79,1.82 Z" id="Shape"></path>
                <path d="M35.35,0.73 L35.35,8.3 C35.35,10.32 33.9,11.39 32.1,11.39 C30.26,11.39 28.84,10.32 28.84,8.3 L28.84,0.73 L27.44,0.73 L27.44,7.8 C27.44,11.09 29.49,12.45 32.1,12.45 C34.58,12.45 36.76,11.09 36.76,7.8 L36.76,0.73 L35.35,0.73 L35.35,0.73 Z" id="Shape"></path>
                <path d="M17.97,1.57 C15.19,1.57 13.47,3.77 13.47,6.49 C13.47,9.21 15.19,11.41 17.97,11.41 C20.76,11.41 22.47,9.2 22.47,6.49 C22.47,3.78 20.76,1.57 17.97,1.57 M23.97,6.49 C23.97,9.8 21.5,12.49 17.97,12.49 C14.41,12.49 11.97,9.81 11.97,6.49 C11.97,3.18 14.41,0.5 17.97,0.5 C21.5,0.5 23.97,3.18 23.97,6.49" id="Shape"></path>
                <path d="M73.41,1.57 C70.63,1.57 68.91,3.77 68.91,6.49 C68.91,9.21 70.63,11.41 73.41,11.41 C76.19,11.41 77.91,9.2 77.91,6.49 C77.91,3.78 76.19,1.57 73.41,1.57 M79.41,6.49 C79.41,9.8 76.94,12.49 73.42,12.49 C69.87,12.49 67.42,9.81 67.42,6.49 C67.42,3.18 69.86,0.5 73.42,0.5 C76.93,0.5 79.41,3.18 79.41,6.49" id="Shape"></path>
                <path d="M115.77,1.57 C112.99,1.57 111.27,3.77 111.27,6.49 C111.27,9.21 112.99,11.41 115.77,11.41 C118.56,11.41 120.27,9.2 120.27,6.49 C120.27,3.78 118.55,1.57 115.77,1.57 M121.77,6.49 C121.77,9.8 119.3,12.49 115.78,12.49 C112.23,12.49 109.78,9.81 109.78,6.49 C109.78,3.18 112.22,0.5 115.78,0.5 C119.29,0.5 121.77,3.18 121.77,6.49" id="Shape"></path>
                <path d="M191.69,1.57 C188.91,1.57 187.19,3.77 187.19,6.49 C187.19,9.21 188.91,11.41 191.69,11.41 C194.47,11.41 196.19,9.2 196.19,6.49 C196.19,3.78 194.48,1.57 191.69,1.57 M197.69,6.49 C197.69,9.8 195.21,12.49 191.69,12.49 C188.13,12.49 185.69,9.81 185.69,6.49 C185.69,3.18 188.13,0.5 191.69,0.5 C195.22,0.5 197.69,3.18 197.69,6.49" id="Shape"></path>
                <path d="M45.42,6.44 C46.95,6.44 47.91,5.42 47.91,4.13 C47.91,2.8 46.9,1.82 45.65,1.82 L42.15,1.82 L42.15,6.44 L45.42,6.44 L45.42,6.44 Z M45.87,0.73 C47.79,0.73 49.34,2.16 49.34,4.12 C49.34,5.81 48.07,7.04 46.5,7.4 L50.14,12.13 L48.38,12.13 L44.91,7.52 L42.15,7.52 L42.15,12.13 L40.72,12.13 L40.72,0.73 L45.87,0.73 L45.87,0.73 Z" id="Shape"></path>
                <path d="M167.74,6.44 C169.27,6.44 170.22,5.42 170.22,4.13 C170.22,2.8 169.21,1.82 167.97,1.82 L164.47,1.82 L164.47,6.44 L167.74,6.44 L167.74,6.44 Z M168.2,0.73 C170.12,0.73 171.68,2.16 171.68,4.12 C171.68,5.81 170.41,7.04 168.84,7.4 L172.48,12.13 L170.71,12.13 L167.24,7.52 L164.49,7.52 L164.49,12.13 L163.06,12.13 L163.06,0.73 L168.2,0.73 L168.2,0.73 Z" id="Shape"></path>
                <path d="M205.44,6.44 C206.97,6.44 207.93,5.42 207.93,4.13 C207.93,2.8 206.92,1.82 205.67,1.82 L202.17,1.82 L202.17,6.44 L205.44,6.44 L205.44,6.44 Z M205.89,0.73 C207.81,0.73 209.36,2.16 209.36,4.12 C209.36,5.81 208.09,7.04 206.52,7.4 L210.16,12.13 L208.4,12.13 L204.92,7.52 L202.17,7.52 L202.17,12.13 L200.75,12.13 L200.75,0.73 L205.89,0.73 L205.89,0.73 Z" id="Shape"></path>
                <path d="M58.93,0.73 L60.36,0.73 L60.36,11.04 L65.83,11.04 L65.83,12.14 L58.93,12.14 L58.93,0.73 Z" id="Shape"></path>
                <path d="M176.49,6.44 L179.75,6.43 C181.29,6.43 182.26,5.46 182.26,4.13 C182.26,2.81 181.25,1.82 180.01,1.82 L176.5,1.81 L176.49,6.44 L176.49,6.44 Z M175.06,0.73 L179.96,0.73 C182.13,0.73 183.68,2.16 183.68,4.13 C183.68,6.1 182.15,7.53 179.97,7.53 L176.51,7.53 L176.49,7.53 L176.49,12.14 L175.07,12.14 L175.06,0.73 L175.06,0.73 L175.06,0.73 Z" id="Shape"></path>
            </g>
        </g>
    </g>
</svg>