<svg xmlns="http://www.w3.org/2000/svg" width="160" height="38" viewBox="0 0 160 38" version="1.1"><g stroke="none" stroke-width="1" fill="none" fill-rule="evenodd"><path d="M11.2 15.9L11.2 24.9C11.2 25.6 11.7 26.1 12.4 26.1L24.9 26.1C25.6 26.1 26.1 25.6 26.1 24.9L26.1 23.7 13.6 23.7 13.6 18.2C13.6 15.6 15.7 13.5 18.3 13.5L32.8 13.5C35.4 13.5 37.5 15.6 37.5 18.2L37.5 32.7C37.5 35.3 35.4 37.4 32.8 37.4L9.3 37.4C4.2 37.5 0 33.3 0 28.1L0 9.3C0 4.2 4.2 0 9.3 0L37.4 0 37.4 6.6C37.4 9.2 35.3 11.3 32.7 11.3L15.9 11.3C13.3 11.2 11.2 13.3 11.2 15.9L11.2 15.9ZM91.1 0C85.9 0 81.8 4.2 81.8 9.3L81.8 37.4 88.4 37.4C91 37.4 93.1 35.3 93.1 32.7L93.1 12.4C93.1 11.7 93.6 11.2 94.3 11.2L95.5 11.2 95.5 37.4 101 37.4C103.6 37.4 105.7 35.3 105.7 32.7L105.7 12.4C105.7 11.7 106.2 11.2 106.9 11.2L108.1 11.2 108.1 37.4 114.7 37.4C117.3 37.4 119.4 35.3 119.4 32.7L119.4 0 91.1 0 91.1 0ZM160 28.1L160 18.3C160 15.7 157.9 13.6 155.3 13.6L133.8 13.6 133.8 12.4C133.8 11.7 134.3 11.2 135 11.2L155.3 11.2C157.9 11.2 160 9.1 160 6.5L160 0 131.9 0C126.7 0 122.6 4.2 122.6 9.3L122.6 19C122.6 21.6 124.7 23.7 127.3 23.7L148.9 23.7 148.9 24.9C148.9 25.6 148.4 26.1 147.7 26.1L127.2 26.1C124.6 26.1 122.5 28.3 122.5 30.9L122.5 37.5 150.6 37.5C155.8 37.5 160 33.3 160 28.1L160 28.1ZM53.3 11.2L73.6 11.2C76.2 11.2 78.3 9.1 78.3 6.5L78.3 0 50.3 0C45.1 0 41 4.2 41 9.3L41 28.1C41 33.3 45.2 37.4 50.3 37.4L73.7 37.4C76.3 37.4 78.4 35.3 78.4 32.7L78.4 26 53.3 26C52.6 26 52.1 25.5 52.1 24.8L52.1 23.6 73.6 23.6C76.2 23.6 78.3 21.5 78.3 18.9L78.3 13.4 52.1 13.4 52.1 12.2C52.1 11.8 52.7 11.2 53.3 11.2L53.3 11.2Z" fill="#000000"/></g></svg>
