<svg xmlns="http://www.w3.org/2000/svg" version="1.1" x="0" y="0" width="559.2" height="310.1" viewBox="0 0 559.2 310.1" enable-background="new 0 0 559.2 310.1" xml:space="preserve"><polyline fill="#FFFFFF" points="4.3 8 4.3 305.9 555 305.9 555 4.3 4.3 4.3 4.3 8 "/><polygon fill="none" stroke="#000000" stroke-width="8.5" points="4.3 8 4.3 305.9 555 305.9 555 4.3 4.3 4.3 "/><path fill="none" stroke="#000000" stroke-width="3" d="M14.3 14.3c0 93.8 0 187.6 0 281.4 176.9 0 353.7 0 530.5 0 0-93.8 0-187.6 0-281.4C368 14.3 191.2 14.3 14.3 14.3z"/><path d="M128.5 113.7l-19.4 0 0 82.1h6v-38h12c0 0 21.1 0.2 21.2-22.4C148.3 114 128.5 113.7 128.5 113.7zM128.4 151.8l-13.3 0 0-32.2 13.5 0c0 0 13.8 0.8 13.8 15.7C142.2 151.8 128.4 151.8 128.4 151.8z"/><path fill="none" stroke="#000000" stroke-width="1.8" stroke-miterlimit="6" d="M128.5 113.7l-19.4 0 0 82.1h6v-38h12c0 0 21.1 0.2 21.2-22.4C148.3 114 128.5 113.7 128.5 113.7zM128.4 151.8l-13.3 0 0-32.2 13.5 0c0 0 13.8 0.8 13.8 15.7C142.2 151.8 128.4 151.8 128.4 151.8z"/><path d="M190.6 151.8c2.9-3.1 5.6-8.4 5.6-16.4 0.1-21.5-18.5-21.7-18.5-21.7l-19.3 0 0 82 5.9 0v-37.9c0 0 25.1 0 25 0 0 0 0 38 0 38 0 0 6 0 6 0 0 0 0-44 0-44S190.6 151.8 190.6 151.8zM177.6 151.8l-13.3 0v-32.2h13.4c0 0 12.3 0.8 12.3 15.7C190 151.8 177.6 151.8 177.6 151.8z"/><path fill="none" stroke="#000000" stroke-width="1.8" stroke-miterlimit="6" d="M190.6 151.8c2.9-3.1 5.6-8.4 5.6-16.4 0.1-21.5-18.5-21.7-18.5-21.7l-19.3 0 0 82 5.9 0v-37.9c0 0 25.1 0 25 0 0 0 0 38 0 38 0 0 6 0 6 0 0 0 0-44 0-44S190.6 151.8 190.6 151.8zM177.6 151.8l-13.3 0v-32.2h13.4c0 0 12.3 0.8 12.3 15.7C190 151.8 177.6 151.8 177.6 151.8z"/><polygon stroke="#000000" stroke-width="1.8" stroke-miterlimit="6" points="211.8 113.7 247.7 113.7 247.7 119.6 217.8 119.6 217.8 148.9 247.7 148.9 247.7 154.9 217.7 154.9 217.7 189.8 247.7 189.8 247.7 195.8 211.8 195.8 "/><polygon stroke="#000000" stroke-width="1.8" stroke-miterlimit="6" points="316.5 113.8 369.1 113.8 321.9 189.8 363.7 189.8 363.7 195.8 311.1 195.8 358.3 119.7 316.5 119.8 "/><polygon stroke="#000000" stroke-width="1.8" stroke-miterlimit="6" points="257.2 113.8 309.7 113.8 262.6 189.8 304.3 189.8 304.3 195.8 251.8 195.8 298.9 119.7 257.2 119.8 "/><path d="M407.2 113.7c-22.7 0-41 18.4-41 41 0 22.7 18.4 41 41 41 22.7 0 41-18.4 41-41C448.2 132.1 429.9 113.7 407.2 113.7zM407.2 189.8c-19.3 0-35-15.7-35-35 0-19.3 15.7-35 35-35 19.3 0 35 15.7 35 35C442.2 174.1 426.5 189.8 407.2 189.8z"/><path fill="none" stroke="#000000" stroke-width="1.8" stroke-miterlimit="6" d="M407.2 113.7c-22.7 0-41 18.4-41 41 0 22.7 18.4 41 41 41 22.7 0 41-18.4 41-41C448.2 132.1 429.9 113.7 407.2 113.7zM407.2 189.8c-19.3 0-35-15.7-35-35 0-19.3 15.7-35 35-35 19.3 0 35 15.7 35 35C442.2 174.1 426.5 189.8 407.2 189.8z"/></svg>
