<svg xmlns="http://www.w3.org/2000/svg" width="342" height="85" viewBox="0 0 342 85" version="1.1"><g stroke="none" stroke-width="1" fill="none" fill-rule="evenodd"><g transform="translate(1.000000, 1.000000)"><path d="M19.5 0.7L0.1 0.7 0.1 82.8 6.1 82.8 6.1 44.8 18.1 44.8C18.1 44.8 39.2 45 39.3 22.4 39.3 1 19.5 0.7 19.5 0.7L19.5 0.7ZM19.4 38.8L6.1 38.8 6.1 6.6 19.6 6.6C19.6 6.6 33.4 7.4 33.4 22.3 33.2 38.8 19.4 38.8 19.4 38.8L19.4 38.8Z" fill="#000000"/><path d="M19.5 0.7L0.1 0.7 0.1 82.8 6.1 82.8 6.1 44.8 18.1 44.8C18.1 44.8 39.2 45 39.3 22.4 39.3 1 19.5 0.7 19.5 0.7L19.5 0.7ZM19.4 38.8L6.1 38.8 6.1 6.6 19.6 6.6C19.6 6.6 33.4 7.4 33.4 22.3 33.2 38.8 19.4 38.8 19.4 38.8L19.4 38.8Z" stroke="#000000" stroke-width="1.8"/><path d="M81.6 38.8C84.5 35.7 87.2 30.4 87.2 22.4 87.3 0.9 68.7 0.7 68.7 0.7L49.4 0.7 49.4 82.7 55.3 82.7 55.3 44.8 80.3 44.8 80.3 82.8 86.3 82.8 86.3 38.8 81.6 38.8 81.6 38.8ZM68.6 38.8L55.3 38.8 55.3 6.6 68.7 6.6C68.7 6.6 81 7.4 81 22.3 81 38.8 68.6 38.8 68.6 38.8L68.6 38.8Z" fill="#000000"/><path d="M81.6 38.8C84.5 35.7 87.2 30.4 87.2 22.4 87.3 0.9 68.7 0.7 68.7 0.7L49.4 0.7 49.4 82.7 55.3 82.7 55.3 44.8 80.3 44.8 80.3 82.8 86.3 82.8 86.3 38.8 81.6 38.8 81.6 38.8ZM68.6 38.8L55.3 38.8 55.3 6.6 68.7 6.6C68.7 6.6 81 7.4 81 22.3 81 38.8 68.6 38.8 68.6 38.8L68.6 38.8Z" stroke="#000000" stroke-width="1.8"/><path d="M102.8 0.7L138.7 0.7 138.7 6.6 108.8 6.6 108.8 35.9 138.7 35.9 138.7 41.9 108.7 41.9 108.7 76.8 138.7 76.8 138.7 82.8 102.8 82.8 102.8 0.7Z" stroke="#000000" stroke-width="1.8" fill="#000000"/><path d="M207.5 0.8L260.1 0.8 212.9 76.8 254.7 76.8 254.7 82.8 202.1 82.8 249.3 6.7 207.5 6.8 207.5 0.8Z" stroke="#000000" stroke-width="1.8" fill="#000000"/><path d="M148.2 0.8L200.7 0.8 153.6 76.8 195.3 76.8 195.3 82.8 142.8 82.8 189.9 6.7 148.2 6.8 148.2 0.8Z" stroke="#000000" stroke-width="1.8" fill="#000000"/><path d="M298.2 0.7C275.5 0.7 257.2 19.1 257.2 41.7 257.2 64.4 275.6 82.7 298.2 82.7 320.9 82.7 339.2 64.3 339.2 41.7 339.2 19.1 320.9 0.7 298.2 0.7L298.2 0.7ZM298.2 76.8C278.9 76.8 263.2 61.1 263.2 41.8 263.2 22.5 278.9 6.8 298.2 6.8 317.5 6.8 333.2 22.5 333.2 41.8 333.2 61.1 317.5 76.8 298.2 76.8L298.2 76.8Z" fill="#000000"/><path d="M298.2 0.7C275.5 0.7 257.2 19.1 257.2 41.7 257.2 64.4 275.6 82.7 298.2 82.7 320.9 82.7 339.2 64.3 339.2 41.7 339.2 19.1 320.9 0.7 298.2 0.7L298.2 0.7ZM298.2 76.8C278.9 76.8 263.2 61.1 263.2 41.8 263.2 22.5 278.9 6.8 298.2 6.8 317.5 6.8 333.2 22.5 333.2 41.8 333.2 61.1 317.5 76.8 298.2 76.8L298.2 76.8Z" stroke="#000000" stroke-width="1.8"/></g></g></svg>
