<svg xmlns="http://www.w3.org/2000/svg" width="388" height="48" viewBox="0 0 388 48" version="1.1"><g stroke="none" stroke-width="1" fill="none" fill-rule="evenodd"><g fill="#000000"><path d="M133.4 24.7L120.9 24.7 120.9 11.9 112.5 11.9 93.7 11.9 89.2 16.6 89.2 11.9 80.5 11.9 80.5 29.4C80.5 33.7 80.2 38.5 74.6 38.5 69 38.5 68.7 33.8 68.7 29.4L68.7 11.9 60 11.9 60 24.9C58.4 16.5 50.5 10.8 41.9 10.8 32.3 10.8 23.5 17.9 23.5 27.9 23.5 28.6 23.5 29.3 23.6 30 22.3 27.3 19.5 25.9 16.2 24.9L14 24.2C12.5 23.7 10.2 23 10.2 21 10.2 19.1 12.3 18.2 13.9 18.2 16 18.2 18.1 19.1 19.6 20.4L23 13.7C20 12 15.9 11 12.6 11 6.1 11 1.3 15.4 1.3 22.2 1.3 28.6 4.9 30.1 10.3 31.6 12.2 32.1 15.6 33 15.6 35.4 15.6 37.7 13.4 38.8 11.4 38.8 8.4 38.8 5.9 37.3 3.7 35.4L0 42.4C3.4 44.6 7.5 46 11.7 46 15.1 46 18.5 45.1 21.2 42.9 23.8 40.7 24.6 37.4 24.6 34.1 27 41.5 33.6 46.2 42.1 46.2 51.6 46.2 58.8 40.2 60.2 31.2 60.2 35.2 60.6 39.2 63.7 42.2 66.5 44.9 70.9 45.9 74.7 45.9 78.6 45.9 83 44.9 85.7 42.2 89 39 89.2 34.7 89.2 30.5L89.2 19.2 96.6 19.2 96.6 45.2 105.3 45.2 105.3 19.2 112.2 19.2 112.2 45.2 120.9 45.2 120.9 31.5 133.4 31.5 133.4 45.1 142.1 45.1 142.1 11.9 133.4 11.9 133.4 24.7ZM42.1 37.9C36.9 37.9 32.7 33.7 32.7 28 32.7 23.4 36.9 19.2 42.1 19.2 47.3 19.2 51.5 23.4 51.5 28 51.5 33.7 47.2 37.9 42.1 37.9L42.1 37.9ZM242.2 11.8L240 14.1 240.1 13.9C237.3 12.1 232.4 10.9 229.1 10.9 222.4 10.9 217.6 15.3 217.6 22.1 217.6 28.5 221.2 30 226.6 31.5 228.5 32 231.9 32.9 231.9 35.3 231.9 37.6 229.7 38.7 227.7 38.7 224.7 38.7 222.2 37.2 220 35.3L217.3 40.4 217.3 37.9 204.8 37.9 204.8 32.2 214.6 32.2 214.6 24.9 204.8 24.9 204.8 19.3 216.6 19.3 216.6 12 196.2 12 196.2 12 188.4 12 182.1 33.5 182 33.5 176.9 12 170 12 164.5 33.5 164.4 33.5 158.6 12 149.6 12 159.5 45.3 167.6 45.3 173.4 26 173.5 26 178.6 45.3 186.7 45.3 196.1 15.9 196.1 45.3 217.3 45.3 217.3 43C220.5 45 224.2 46.1 228 46.1 231.4 46.1 234.8 45.2 237.5 43 240.2 40.7 240.9 37.3 240.9 34 240.9 28.6 237.3 26.3 232.7 24.9L230.5 24.2C229 23.7 226.7 23 226.7 21 226.7 19.1 228.8 18.2 230.4 18.2 232.5 18.2 234.6 19.1 236.1 20.4L236.9 19.2 245.2 19.2 245.2 45.2 253.9 45.2 253.9 19.2 261.1 19.2 261.1 11.9 242.2 11.8 242.2 11.8ZM286.3 11.8L267 11.8 267 15.1 275.3 15.1 275.3 45.2 278.7 45.2 278.7 15.1 287 15.1 287 11.8M317.3 9.6L316.6 11.2 304 42.2C301.2 38.1 296.4 31.2 295.5 30 298 29.8 300.1 29 301.6 27.5 303.2 25.9 304.1 23.7 304.1 21 304.1 17.7 302.9 15.2 300.6 13.5 298.2 11.8 295.4 11.8 292.9 11.8L288.2 11.8 288.2 45.2 291.6 45.2 291.6 30.2C292.1 30.9 302 45.3 302 45.3L306.4 45.3C306.4 45.3 310.4 35.6 310.7 34.8L323.8 34.8C324.1 35.6 328.1 45.3 328.1 45.3L331.7 45.3 317.3 9.6ZM291.7 26.7L291.7 15.1 292.3 15.1 292.8 15.1C294.5 15.1 296.3 15.1 297.7 15.8 299.9 16.8 300.7 19.1 300.7 20.9 300.7 22.7 300 24.4 298.7 25.4 297.3 26.6 295.5 26.7 293.5 26.7L291.7 26.7 291.7 26.7ZM312 31.4C312.6 29.9 316.2 21 317.2 18.5 318.2 20.9 321.8 29.8 322.4 31.4L312 31.4 312 31.4ZM335.2 11.8L332.5 11.8 332.5 45.2 335.9 45.2 335.9 11.8M339.6 12.1L339.6 45.2 343 45.2 343 19C345.2 21.8 366.3 47.6 366.3 47.6L366.3 11.8 362.8 11.8 362.8 38.4C360.6 35.7 339.5 10.1 339.5 10.1M368.8 20.2C368.8 22.9 370 25 372.4 26.5L378.2 29.6 378.8 29.9C381.4 31.1 384.3 32.6 384.3 35.5 384.3 39.2 381 42.3 377.1 42.3 373 42.3 371 39.4 370 37L369.7 36.3 366.6 37.7 366.8 38.3C368.4 42.8 372.3 45.6 376.9 45.6 382.7 45.6 387.6 41 387.6 35.6 387.6 32.6 386.3 30.4 383.6 28.6 383.5 28.6 377.4 25.4 377.4 25.4L377.1 25.3C374.6 24.1 372 22.9 372 20.1 372 17.1 374.3 14.7 377.3 14.7 379.8 14.7 381.7 15.8 383.2 18.1L383.6 18.8 386.1 16.7 385.8 16.2C384.2 13.2 380.9 11.3 377.4 11.3 372.6 11.4 368.8 15.1 368.8 20.2M330 4.1C330 1.8 331.8 0 334.1 0 336.4 0 338.2 1.8 338.2 4.1 338.2 6.4 336.4 8.2 334.1 8.2 331.8 8.2 330 6.3 330 4.1"/></g></g></svg>
