<svg xmlns="http://www.w3.org/2000/svg" width="313" height="102" viewBox="0 0 313 102" version="1.1"><g fill="#000000"><path d="M14.2 54L14.2 54.5C14.2 57.3 16.4 59.2 19.6 59.2 22.7 59.2 24.6 57.6 24.6 54.8 24.6 50.7 20.6 50.9 14.4 49 5.8 46.3 1.6 41.7 1.6 34.2 1.6 24.5 8.7 17.6 20.6 17.6 30.9 17.6 37.5 23.4 38 32.9L24.8 32.9C24.2 29.7 23 28.3 20.4 28.3 17.5 28.3 15.9 30 15.9 32.4 15.9 35.8 19 36.7 24.1 38 34.3 40.8 39.4 44.7 39.4 52.9 39.4 62.9 31.5 70.1 19.5 70.1 8.4 70.1 1.5 64.1 0.5 54L14.2 54 14.2 54 14.2 54ZM83.1 68.9L74.8 39.7 66.4 68.9 53 68.9 38 19.1 52.9 19.1 60.4 48.7 68.4 19.1 81.1 19.1 89.2 48.7 96.8 19.1 111.7 19.1 96.7 68.9 83.1 68.9Z"/><rect x="114.4" y="19.1" width="14.5" height="49.7"/><path d="M133.6 68.9L133.6 19.2 147.5 19.2 147.3 25.9C150.4 20.9 155 18.3 161.6 18.3 171.9 18.3 178.5 24.8 178.5 36.2L178.5 68.9 163.9 68.9 163.9 41.9C163.9 35 162.4 31.8 156.8 31.8 151.1 31.8 148 35.2 148 41.9L148 68.9 133.6 68.9 133.6 68.9ZM267.6 68.9L267.6 19.2 281.5 19.2 281.3 25.9C284.4 20.9 289 18.3 295.6 18.3 305.9 18.3 312.6 24.8 312.6 36.2L312.6 68.9 298 68.9 298 41.9C298 35 296.5 31.8 290.9 31.8 285.2 31.8 282.1 35.2 282.1 41.9L282.1 68.9 267.6 68.9 267.6 68.9ZM255.6 25.3C250.6 20.6 244.4 18.1 237.2 18.1 230.4 18.1 223.9 20.9 218.9 25.9 214 30.8 211.3 37.2 211.3 44.1 211.3 50.5 213.4 56.4 217.5 61.2 215.8 61.9 213.4 62.5 212.3 62.6 210.9 62.7 210 62.7 209 62.6 206.6 62.2 204.8 61.5 203.8 60.5 202.7 59.5 202.2 57.8 202.2 55.7L202.2 30.1 208.8 30.1 208.8 19.2 202.2 19.2 202.2 3.1 187.4 3.1 187.4 19.2 181 19.2 181 30.1 187.2 30.1 187.2 41 187.2 58.4C187.2 62.7 188.9 65.8 192.1 67.7 195.4 69.5 199.6 70.4 204.9 70.4 210.1 70.4 216 68.8 221.3 64.9 225.8 68.6 231.1 70.4 237.4 70.4 244.9 70.4 251.2 67.7 256.3 62.6 261.3 57.6 263.8 51.4 263.8 43.9 263.7 37.1 260.8 30.3 255.6 25.3L255.6 25.3ZM237.4 56.5C231 56.5 225.6 51 225.6 44.3 225.6 37.4 230.9 32 237.4 32 243.9 32 249.2 37.5 249.2 44.3 249.2 51 243.9 56.5 237.4 56.5L237.4 56.5Z"/><rect x="114.4" y="0.1" width="14.5" height="14.5"/><rect x="114.4" y="77.4" width="7" height="23.9"/><path d="M124.5 101.2L124.5 77.3 131.2 77.3 131.1 80.5C132.6 78.1 134.8 76.9 137.9 76.9 142.8 76.9 146 80 146 85.5L146 101.2 139 101.2 139 88.3C139 85 138.3 83.4 135.6 83.4 132.8 83.4 131.4 85.1 131.4 88.3L131.4 101.2 124.5 101.2 124.5 101.2 124.5 101.2ZM155.1 94.1L155.1 94.3C155.1 95.6 156.2 96.6 157.7 96.6 159.2 96.6 160.1 95.8 160.1 94.5 160.1 92.5 158.2 92.6 155.2 91.7 151.1 90.4 149.1 88.2 149.1 84.6 149.1 79.9 152.5 76.6 158.2 76.6 163.1 76.6 166.3 79.4 166.6 83.9L160.2 83.9C159.9 82.3 159.4 81.7 158.1 81.7 156.7 81.7 155.9 82.5 155.9 83.7 155.9 85.3 157.4 85.7 159.8 86.4 164.7 87.7 167.1 89.6 167.1 93.6 167.1 98.4 163.3 101.9 157.5 101.9 152.2 101.9 148.9 99 148.4 94.2L155.1 94.1 155.1 94.1 155.1 94.1ZM191.5 77.4L191.5 101.3 185 101.3 185 98.1C183.5 100.6 181.2 101.7 178.2 101.7 173.3 101.7 170 98.6 170 93.1L170 77.4 177.1 77.4 177.1 90.3C177.1 93.6 177.8 95.1 180.5 95.1 183.3 95.1 184.7 93.5 184.7 90.3L184.7 77.4 191.5 77.4 191.5 77.4 191.5 77.4ZM201.3 77.4L201.3 80.6C202.5 78.2 204.5 77 207.3 77L207.3 83.5 207.1 83.5C202.7 83.5 201.7 85 201.7 89.4L201.7 101.2 194.6 101.2 194.6 77.3 201.3 77.3 201.3 77.4 201.3 77.4ZM227.1 98.6C225 100.6 222.9 101.4 220 101.4 217.1 101.4 214.6 100.5 212.5 98.6 209.7 96.2 208.3 93 208.3 89.2 208.3 85.8 209.6 82.7 212.1 80.3 214.3 78.1 217 77 220.1 77 223 77 225.2 78 226.8 80L226.8 77.3 233.8 77.3 233.8 101.2 227 101.2 227 98.6 227.1 98.6 227.1 98.6ZM221.6 95C224.6 95 227.2 92.5 227.2 89.2 227.2 85.8 224.7 83.2 221.4 83.2 218.1 83.2 215.5 85.9 215.5 89.1 215.4 92.5 218 95 221.6 95L221.6 95ZM236.9 101.2L236.9 77.3 243.6 77.3 243.5 80.5C245 78.1 247.2 76.9 250.3 76.9 255.2 76.9 258.4 80 258.4 85.5L258.4 101.2 251.4 101.2 251.4 88.3C251.4 85 250.7 83.4 248 83.4 245.2 83.4 243.8 85.1 243.8 88.3L243.8 101.2 236.9 101.2 236.9 101.2 236.9 101.2ZM285.4 92.7C283.6 98.4 279 101.9 273.2 101.9 269.6 101.9 266.6 100.7 264.2 98.1 261.9 95.7 260.7 92.5 260.7 89.2 260.7 85.9 262 82.8 264.3 80.4 266.7 77.9 269.7 76.7 273.1 76.7 279.1 76.7 283.5 80 285.4 86L278 86C277 84.4 275.4 83.5 273.1 83.5 269.9 83.5 267.6 85.9 267.6 89.2 267.6 92.8 269.9 95.1 273.3 95.1 275.2 95.1 276.8 94.3 277.9 92.7L285.4 92.7 285.4 92.7 285.4 92.7ZM311.3 94.3C309 99.3 305 101.8 299.7 101.8 296 101.8 293.1 100.6 290.7 98 288.4 95.6 287.2 92.5 287.2 89.1 287.2 85.8 288.5 82.7 290.8 80.3 293.2 77.9 296.4 76.6 299.6 76.6 307.2 76.6 312.4 82.1 312.4 91L312.4 91.8 294.4 91.8C295 94.3 296.8 95.7 299.9 95.7 301.3 95.7 302.5 95.3 303.5 94.4L311.3 94.4 311.3 94.3 311.3 94.3 311.3 94.3ZM305.3 86.8C304.5 84.4 302.5 83 299.7 83 296.8 83 294.7 84.5 294.2 86.8L305.3 86.8 305.3 86.8Z"/></g></svg>
